HIERARCHY
ROOT Hips
{
	OFFSET 0.000000 0.000000 0.000000
	CHANNELS 6 Xposition Yposition Zposition Yrotation Xrotation Zrotation
	JOINT Chest
	{
		OFFSET 0.000000 -0.009281 11.569106
		CHANNELS 3 Yrotation Xrotation Zrotation
		JOINT Chest2
		{
			OFFSET -0.000000 0.016865 9.269641
			CHANNELS 3 Yrotation Xrotation Zrotation
			JOINT Chest3
			{
				OFFSET -0.000000 0.000001 8.374491
				CHANNELS 3 Yrotation Xrotation Zrotation
				JOINT Chest4
				{
					OFFSET -0.000000 0.000001 8.374493
					CHANNELS 3 Yrotation Xrotation Zrotation
					JOINT Neck
					{
						OFFSET -0.000000 0.000002 12.152554
						CHANNELS 3 Yrotation Xrotation Zrotation
						JOINT Head
						{
							OFFSET -0.000000 0.040101 7.802319
							CHANNELS 3 Yrotation Xrotation Zrotation
							End Site
							{
								OFFSET -0.000000 0.020947 14.853096
							}
						}
					}
					JOINT RightCollar
					{
						OFFSET 2.894404 0.000001 6.791374
						CHANNELS 3 Yrotation Xrotation Zrotation
						JOINT RightShoulder
						{
							OFFSET 13.574684 0.000001 0.000000
							CHANNELS 3 Yrotation Xrotation Zrotation
							JOINT RightElbow
							{
								OFFSET 23.923903 0.000002 0.000000
								CHANNELS 3 Yrotation Xrotation Zrotation
								JOINT RightWrist
								{
									OFFSET 19.846718 0.012767 0.000000
									CHANNELS 3 Yrotation Xrotation Zrotation
									End Site
									{
										OFFSET 14.973145 0.000001 0.000000
									}
								}
							}
						}
					}
					JOINT LeftCollar
					{
						OFFSET -2.894404 0.000001 6.791374
						CHANNELS 3 Yrotation Xrotation Zrotation
						JOINT LeftShoulder
						{
							OFFSET -13.574684 -0.000001 0.000000
							CHANNELS 3 Yrotation Xrotation Zrotation
							JOINT LeftElbow
							{
								OFFSET -23.923903 -0.000002 0.000000
								CHANNELS 3 Yrotation Xrotation Zrotation
								JOINT LeftWrist
								{
									OFFSET -19.846718 0.012763 0.000000
									CHANNELS 3 Yrotation Xrotation Zrotation
									End Site
									{
										OFFSET -14.973145 -0.000001 0.000000
									}
								}
							}
						}
					}
				}
			}
		}
	}
	JOINT RightHip
	{
		OFFSET 9.469263 0.004643 0.045487
		CHANNELS 3 Yrotation Xrotation Zrotation
		JOINT RightKnee
		{
			OFFSET 0.000000 0.002661 -40.478676
			CHANNELS 3 Yrotation Xrotation Zrotation
			JOINT RightAnkle
			{
				OFFSET 0.000000 0.049106 -35.224068
				CHANNELS 3 Yrotation Xrotation Zrotation
				JOINT RightToe
				{
					OFFSET -0.000001 12.539529 -6.151390
					CHANNELS 3 Yrotation Xrotation Zrotation
					End Site
					{
						OFFSET -0.000001 5.044994 -1.291870
					}
				}
			}
		}
	}
	JOINT LeftHip
	{
		OFFSET -9.469263 0.004641 0.045487
		CHANNELS 3 Yrotation Xrotation Zrotation
		JOINT LeftKnee
		{
			OFFSET 0.000000 0.002661 -40.478676
			CHANNELS 3 Yrotation Xrotation Zrotation
			JOINT LeftAnkle
			{
				OFFSET 0.000000 0.049106 -35.224068
				CHANNELS 3 Yrotation Xrotation Zrotation
				JOINT LeftToe
				{
					OFFSET -0.000001 12.539529 -6.151390
					CHANNELS 3 Yrotation Xrotation Zrotation
					End Site
					{
						OFFSET -0.000001 5.044994 -1.291870
					}
				}
			}
		}
	}
}
MOTION
Frames: 13
Frame Time: 0.016667
-82.682884 68.443260 81.200722 13.684069 8.522944 -132.421891 -12.877856 -6.018140 -3.431269 -5.823844 -2.603706 -1.712061 -5.823847 -2.603705 -1.712061 -4.374467 -1.936694 -1.308790 -1.126074 -13.129249 14.189524 3.490539 10.732400 26.393856 9.547904 -4.238503 -4.420565 64.998177 -28.516146 -10.019090 -25.981251 -75.767008 93.417153 -4.444133 4.577869 30.486437 -8.090724 -4.317792 -6.780603 -59.635133 -25.339254 22.761354 -74.892034 -64.556325 -7.024371 35.882815 25.266425 -27.950311 10.747842 18.591374 -6.608336 5.183576 -0.281344 -4.815178 2.289614 2.422610 5.681062 2.172542 0.978282 0.053209 1.960583 34.874464 3.577012 -2.059459 -1.993426 21.237059 -0.933792 -6.515899 4.127735 -0.287293 0.388216 -0.021439 
-82.482498 68.187401 81.182892 13.695971 8.334537 -132.179938 -12.823621 -6.078240 -3.433202 -5.802565 -2.624793 -1.707900 -5.802563 -2.624793 -1.707898 -4.358540 -1.952608 -1.305775 -0.980219 -13.129235 14.153268 3.749289 10.707055 26.382763 9.559066 -4.323361 -4.446911 64.904194 -28.562828 -9.826821 -26.011333 -75.778278 93.423997 -4.574417 4.628475 30.496214 -8.089849 -4.366158 -6.771705 -59.634054 -25.235367 22.736844 -74.746025 -64.450929 -7.098098 35.715817 25.064018 -28.110689 10.843395 18.522899 -6.348123 5.235509 -0.789845 -4.579474 1.541179 2.824145 4.968576 2.213683 0.923297 0.035198 2.206866 34.934061 3.804631 -2.112440 -2.137519 21.334176 -0.876628 -6.610561 4.001972 -0.301081 0.318913 -0.014940 
-82.248123 67.886703 81.159950 13.702502 8.105368 -131.887169 -12.743127 -6.135967 -3.444395 -5.773759 -2.637631 -1.703989 -5.773754 -2.637628 -1.703987 -4.336946 -1.962351 -1.302835 -0.821318 -13.152990 14.096692 4.019719 10.638686 26.334494 9.576796 -4.397354 -4.459591 64.827573 -28.601002 -9.687240 -25.923327 -75.761920 93.329166 -4.687804 4.657304 30.467213 -8.077556 -4.427002 -6.758269 -59.628228 -25.180443 22.689654 -74.668830 -64.250025 -7.128118 35.506373 24.836762 -28.353860 10.945524 18.412720 -6.166868 5.327779 -1.357465 -4.185963 0.756587 3.292092 4.162534 2.249989 0.870120 0.033359 2.480381 35.033037 4.097769 -2.154954 -2.311454 21.432698 -0.801432 -6.724022 3.853687 -0.319570 0.241367 -0.007751 
-81.981857 67.544121 81.128876 13.716111 7.851582 -131.556479 -12.636355 -6.165409 -3.465295 -5.733624 -2.637605 -1.704642 -5.733620 -2.637605 -1.704644 -4.306855 -1.962438 -1.303153 -0.660778 -13.188933 14.025437 4.285126 10.550104 26.257064 9.583139 -4.444550 -4.495752 64.742865 -28.644365 -9.612605 -25.954943 -75.742242 93.407884 -4.758269 4.700461 30.382860 -8.110562 -4.425643 -6.752129 -59.609124 -25.170243 22.693712 -74.796643 -63.963021 -6.977524 35.287704 24.612411 -28.689885 11.051842 18.302335 -6.046547 5.442824 -2.038287 -3.911724 -0.034219 3.864113 3.482395 2.285234 0.812538 0.032276 2.774008 35.183923 4.395874 -2.175115 -2.487531 21.552664 -0.718861 -6.875402 3.762350 -0.333146 0.162717 -0.000311 
-81.688797 67.148239 81.086700 13.742003 7.545417 -131.182949 -12.477143 -6.175624 -3.490774 -5.681745 -2.631959 -1.706038 -5.681745 -2.631962 -1.706039 -4.267951 -1.958336 -1.303924 -0.503834 -13.221352 13.937593 4.538461 10.471571 26.147451 9.603725 -4.501037 -4.566460 64.607299 -28.609946 -9.550547 -26.019665 -75.772548 93.578728 -4.815750 4.723016 30.243145 -8.153879 -4.434935 -6.759229 -59.542632 -25.156990 22.632182 -75.117034 -63.578215 -6.619650 35.026347 24.391292 -29.144086 11.203910 18.182985 -6.015332 5.566286 -2.832462 -3.730767 -0.819479 4.581528 2.882932 2.308084 0.714972 0.033470 3.142249 35.380773 4.792484 -2.200897 -2.675449 21.671608 -0.632246 -7.067016 3.643202 -0.330148 0.081145 0.006503 
-81.347748 66.721291 81.031464 13.725508 7.210508 -130.796907 -12.317134 -6.165253 -3.485752 -5.614236 -2.625213 -1.700908 -5.614240 -2.625220 -1.700911 -4.217286 -1.953504 -1.299720 -0.350320 -13.257471 13.825309 4.775670 10.391258 25.989852 9.658750 -4.525213 -4.686870 64.442603 -28.532943 -9.539089 -26.110065 -75.813727 93.796222 -4.885759 4.705591 30.062432 -8.174124 -4.480977 -6.790519 -59.456011 -25.167596 22.487397 -75.508602 -63.067877 -6.171864 34.692877 24.128395 -29.753233 11.310650 18.046760 -6.092594 5.712307 -3.790572 -3.601061 -1.565305 5.390575 2.385691 2.307891 0.655239 0.012207 3.549378 35.616059 5.320760 -2.262946 -2.880742 21.825111 -0.519780 -7.326626 3.510154 -0.296755 0.027556 0.010521 
-80.958252 66.263351 80.959137 13.662883 6.806550 -130.391959 -12.104588 -6.131097 -3.464033 -5.522416 -2.619720 -1.695688 -5.522418 -2.619725 -1.695693 -4.148403 -1.949680 -1.295356 -0.212955 -13.296233 13.702759 4.978475 10.311476 25.806161 9.708887 -4.548702 -4.838261 64.254766 -28.454968 -9.560873 -26.266346 -75.831130 94.086266 -4.986082 4.663043 29.841226 -8.228232 -4.509181 -6.839259 -59.385510 -25.192138 22.319549 -75.889494 -62.384428 -5.689528 34.254174 23.771087 -30.526059 11.395114 17.874414 -6.267558 5.901469 -4.921500 -3.458993 -2.321189 6.311375 1.872716 2.308550 0.613561 -0.006300 4.016264 35.836285 5.959621 -2.382879 -3.037921 22.058489 -0.373220 -7.662789 3.366036 -0.208122 -0.014388 0.010571 
-80.509743 65.752655 80.866966 13.514632 6.279363 -129.940948 -11.809223 -6.112653 -3.448054 -5.401833 -2.617418 -1.689176 -5.401835 -2.617420 -1.689174 -4.057944 -1.948333 -1.289928 -0.086435 -13.334632 13.572178 5.158261 10.236225 25.603196 9.775240 -4.619274 -4.996197 64.002561 -28.373907 -9.556987 -26.410924 -75.819778 94.379998 -5.125061 4.601142 29.537658 -8.294426 -4.606553 -6.911593 -59.291274 -25.175556 22.072089 -76.245559 -61.533564 -5.193022 33.671398 23.293693 -31.507704 11.492402 17.574931 -6.464990 6.107254 -6.193992 -3.359359 -3.068787 7.360386 1.286446 2.301700 0.579892 0.003190 4.511529 35.948966 6.622162 -2.532010 -3.103491 22.386189 -0.217521 -8.068851 3.271852 -0.057380 -0.058701 0.006859 
-79.997856 65.180199 80.763435 13.264051 5.625778 -129.468298 -11.423397 -6.090659 -3.429171 -5.245317 -2.615807 -1.677874 -5.245317 -2.615801 -1.677874 -3.940522 -1.947641 -1.280762 0.024558 -13.397326 13.428785 5.299283 10.122188 25.366028 9.838069 -4.690282 -5.191372 63.689205 -28.362724 -9.511623 -26.267613 -75.845501 94.407244 -5.383864 4.516843 29.212214 -8.352066 -4.774798 -6.990165 -59.228518 -25.161225 21.739707 -76.450908 -60.543596 -4.771548 32.872949 22.699951 -32.655852 11.600096 17.121568 -6.691467 6.328681 -7.604039 -3.331038 -3.780718 8.521489 0.699025 2.278739 0.567020 0.032676 5.042695 35.922202 7.422018 -2.679201 -3.088458 22.692824 -0.098304 -8.547516 3.166040 0.149268 -0.098995 -0.000658 
-79.414566 64.568420 80.651375 12.890209 4.884652 -128.989639 -10.965234 -6.044019 -3.394681 -5.047307 -2.616157 -1.666469 -5.047306 -2.616157 -1.666465 -3.791989 -1.948532 -1.271351 0.121131 -13.498313 13.277375 5.402495 9.942612 25.101896 9.871374 -4.784912 -5.370848 63.311940 -28.371101 -9.395436 -25.882829 -75.925926 94.196136 -5.783861 4.401911 28.922634 -8.436371 -4.941025 -7.051412 -59.194750 -25.181128 21.325010 -76.479288 -59.513597 -4.445307 31.792328 22.082143 -33.892710 11.689712 16.511675 -7.065995 6.511709 -9.112113 -3.244316 -4.390918 9.736326 0.152405 2.214822 0.586402 0.053945 5.575846 35.750525 8.401828 -2.813207 -3.022504 22.919554 -0.028607 -9.074154 3.066626 0.391625 -0.126932 -0.009244 
-78.714493 63.939201 80.535545 12.321581 4.039734 -128.499668 -10.454235 -6.020918 -3.350743 -4.807302 -2.619769 -1.648279 -4.807301 -2.619768 -1.648275 -3.611944 -1.952020 -1.256703 0.211571 -13.644971 13.115327 5.481078 9.682540 24.808056 9.858395 -4.871728 -5.522757 62.937891 -28.428224 -9.289385 -25.652498 -75.998545 94.111715 -6.310338 4.347841 28.680193 -8.537818 -5.079556 -7.052765 -59.156173 -25.265853 20.784629 -76.428594 -58.543464 -4.164552 30.473104 21.461581 -35.075511 11.669146 15.631062 -7.722097 6.638657 -10.676681 -3.063340 -4.772123 11.026662 -0.193612 2.066379 0.613572 0.006412 6.055619 35.363383 9.433710 -2.933451 -2.940978 23.141574 -0.016375 -9.622820 3.012793 0.657391 -0.125151 -0.020332 
-77.877060 63.284367 80.418007 11.568296 3.093925 -127.992103 -9.872546 -6.043497 -3.309941 -4.534910 -2.630098 -1.621608 -4.534909 -2.630101 -1.621605 -3.407596 -1.960691 -1.235600 0.296287 -13.824458 12.929114 5.534007 9.367574 24.461761 9.818475 -4.937828 -5.609353 62.597051 -28.512550 -9.206851 -25.394724 -76.057988 93.973458 -6.943210 4.330487 28.463031 -8.650715 -5.128970 -7.013630 -59.132329 -25.413556 20.199497 -76.213300 -57.877384 -4.058785 28.997189 20.986596 -36.023015 11.561714 14.438311 -8.510224 6.776929 -12.214276 -2.877475 -5.050324 12.359993 -0.476739 1.904716 0.658187 -0.029421 6.469614 34.735702 10.527566 -2.998068 -2.828506 23.324483 -0.065325 -10.249126 2.927033 0.911330 -0.059343 -0.037671 
-76.929214 62.615105 80.304291 10.672572 2.129817 -127.490057 -9.242677 -6.036080 -3.253011 -4.246901 -2.637546 -1.591157 -4.246899 -2.637545 -1.591155 -3.191509 -1.967230 -1.211567 0.366046 -14.029354 12.703349 5.540639 9.015548 24.032379 9.763278 -4.954724 -5.661868 62.344396 -28.622608 -9.190427 -25.033243 -76.106189 93.690996 -7.615375 4.334544 28.266361 -8.787705 -5.072498 -6.919896 -59.091211 -25.703358 19.675000 -75.706957 -57.638942 -4.352684 27.391536 20.722861 -36.660754 11.374699 13.056445 -9.316797 6.919110 -13.757504 -2.577872 -5.345638 13.661722 -0.906495 1.794162 0.760662 -0.006744 6.807159 33.908396 11.784888 -3.030438 -2.674231 23.377342 -0.106278 -10.937483 2.850161 1.105599 0.066358 -0.058532 
